<?xml version="1.0" encoding="utf-8"?>
<!-- Generator: Adobe Illustrator 26.3.0, SVG Export Plug-In . SVG Version: 6.00 Build 0)  -->
<svg version="1.1" id="Capa_1" xmlns="http://www.w3.org/2000/svg" xmlns:xlink="http://www.w3.org/1999/xlink" x="0px" y="0px"
	 viewBox="0 0 158.66 65.33" style="enable-background:new 0 0 158.66 65.33;" xml:space="preserve">
<style type="text/css">
	.st0{fill:#0B2E44;}
	.st1{fill:#F49930;}
</style>
<g>
	<g>
		<g>
			<path class="st0" d="M60.4,34.15v3.68H48.36V23.35h11.77v3.68h-6.97v1.7h6.12v3.52h-6.12v1.9H60.4z"/>
			<path class="st0" d="M75.86,28.81c0,3.35-2.57,5.46-6.6,5.46h-2.09v3.56h-4.88V23.35h6.97C73.29,23.35,75.86,25.46,75.86,28.81z
				 M70.93,28.81c0-1.06-0.64-1.7-1.99-1.7h-1.78v3.39h1.78C70.29,30.51,70.93,29.87,70.93,28.81z"/>
			<path class="st0" d="M77.12,31.32v-7.97H82v7.82c0,2.21,0.85,3.04,2.21,3.04c1.37,0,2.21-0.83,2.21-3.04v-7.82h4.8v7.97
				c0,4.35-2.61,6.85-7.06,6.85C79.73,38.17,77.12,35.66,77.12,31.32z"/>
			<path class="st0" d="M107.74,23.35v14.48h-4.01l-5.5-6.58v6.58h-4.76V23.35h4.01l5.5,6.58v-6.58H107.74z"/>
			<path class="st0" d="M122.14,34.15v3.68H110.1V23.35h11.77v3.68h-6.97v1.7h6.12v3.52h-6.12v1.9H122.14z"/>
			<path class="st0" d="M136.95,37.83l-0.04-6.6l-3.15,5.3h-2.15l-3.15-5.07v6.37h-4.45V23.35h4.01l4.72,7.72l4.59-7.72h4.01
				l0.04,14.48H136.95z"/>
			<path class="st0" d="M143.76,23.35h4.88v14.48h-4.88V23.35z"/>
		</g>
	</g>
	<g>
		<path class="st1" d="M49.9,41.23v0.39h-1.65v-2.13h1.61v0.39h-1.12v0.46h0.99v0.38h-0.99v0.49H49.9z"/>
		<path class="st1" d="M52.23,41.62l0-1.28L51.6,41.4h-0.22l-0.62-1.02v1.25H50.3v-2.13h0.41l0.8,1.32l0.78-1.32h0.4l0.01,2.13
			H52.23z"/>
		<path class="st1" d="M55.05,40.26c0,0.47-0.36,0.77-0.92,0.77h-0.43v0.59H53.2v-2.13h0.92C54.69,39.49,55.05,39.79,55.05,40.26z
			 M54.55,40.26c0-0.23-0.15-0.37-0.45-0.37h-0.4v0.74h0.4C54.4,40.63,54.55,40.5,54.55,40.26z"/>
		<path class="st1" d="M56.75,41.62l-0.41-0.59h-0.02h-0.43v0.59H55.4v-2.13h0.92c0.57,0,0.92,0.29,0.92,0.77
			c0,0.32-0.16,0.55-0.44,0.67l0.48,0.68H56.75z M56.29,39.89h-0.4v0.74h0.4c0.3,0,0.45-0.14,0.45-0.37
			C56.75,40.03,56.59,39.89,56.29,39.89z"/>
		<path class="st1" d="M59.28,41.23v0.39h-1.65v-2.13h1.61v0.39h-1.12v0.46h0.99v0.38h-0.99v0.49H59.28z"/>
		<path class="st1" d="M59.51,41.41l0.17-0.37c0.18,0.13,0.45,0.22,0.7,0.22c0.29,0,0.41-0.1,0.41-0.23c0-0.4-1.24-0.12-1.24-0.92
			c0-0.36,0.29-0.66,0.9-0.66c0.27,0,0.54,0.06,0.74,0.19l-0.15,0.37c-0.2-0.11-0.4-0.17-0.59-0.17c-0.29,0-0.4,0.11-0.4,0.24
			c0,0.39,1.24,0.12,1.24,0.9c0,0.36-0.29,0.66-0.9,0.66C60.04,41.66,59.7,41.56,59.51,41.41z"/>
		<path class="st1" d="M63.02,41.16h-0.99l-0.19,0.46h-0.5l0.95-2.13h0.49l0.95,2.13h-0.52L63.02,41.16z M62.86,40.79l-0.34-0.81
			l-0.34,0.81H62.86z"/>
		<path class="st1" d="M66.65,40.26c0,0.47-0.36,0.77-0.92,0.77H65.3v0.59h-0.49v-2.13h0.92C66.3,39.49,66.65,39.79,66.65,40.26z
			 M66.16,40.26c0-0.23-0.15-0.37-0.45-0.37h-0.4v0.74h0.4C66,40.63,66.16,40.5,66.16,40.26z"/>
		<path class="st1" d="M66.98,40.68v-1.19h0.49v1.17c0,0.4,0.18,0.57,0.47,0.57c0.3,0,0.47-0.17,0.47-0.57v-1.17h0.49v1.19
			c0,0.63-0.36,0.97-0.96,0.97C67.34,41.66,66.98,41.31,66.98,40.68z M68.08,38.88h0.51l-0.55,0.44h-0.37L68.08,38.88z"/>
		<path class="st1" d="M71.35,41.04c0,0.37-0.29,0.58-0.85,0.58h-1.1v-2.13h1.04c0.53,0,0.81,0.22,0.81,0.55
			c0,0.21-0.11,0.38-0.28,0.47C71.19,40.59,71.35,40.77,71.35,41.04z M69.88,39.86v0.5h0.49c0.24,0,0.37-0.09,0.37-0.25
			c0-0.17-0.13-0.25-0.37-0.25H69.88z M70.85,40.99c0-0.18-0.14-0.26-0.39-0.26h-0.57v0.53h0.57
			C70.71,41.25,70.85,41.17,70.85,40.99z"/>
		<path class="st1" d="M71.72,39.49h0.49v1.73h1.07v0.4h-1.56V39.49z"/>
		<path class="st1" d="M73.56,39.49h0.49v2.13h-0.49V39.49z"/>
		<path class="st1" d="M74.42,40.56c0-0.64,0.49-1.1,1.16-1.1c0.37,0,0.67,0.13,0.88,0.38l-0.32,0.29
			c-0.14-0.16-0.32-0.25-0.53-0.25c-0.4,0-0.68,0.28-0.68,0.68s0.28,0.68,0.68,0.68c0.21,0,0.39-0.09,0.53-0.25l0.32,0.29
			c-0.2,0.25-0.51,0.38-0.88,0.38C74.92,41.66,74.42,41.2,74.42,40.56z"/>
		<path class="st1" d="M78.15,41.16h-0.99l-0.19,0.46h-0.5l0.95-2.13h0.49l0.95,2.13h-0.52L78.15,41.16z M77.99,40.79l-0.34-0.81
			l-0.34,0.81H77.99z"/>
		<path class="st1" d="M79.94,39.49h0.97c0.7,0,1.17,0.42,1.17,1.06s-0.48,1.06-1.17,1.06h-0.97V39.49z M80.88,41.22
			c0.42,0,0.7-0.25,0.7-0.66s-0.28-0.66-0.7-0.66h-0.45v1.32H80.88z"/>
		<path class="st1" d="M84.1,41.23v0.39h-1.65v-2.13h1.61v0.39h-1.12v0.46h0.99v0.38h-0.99v0.49H84.1z"/>
		<path class="st1" d="M85.35,39.49h0.49v1.73h1.07v0.4h-1.56V39.49z"/>
		<path class="st1" d="M88.61,41.16h-0.99l-0.19,0.46h-0.5l0.95-2.13h0.49l0.95,2.13H88.8L88.61,41.16z M88.45,40.79l-0.34-0.81
			l-0.34,0.81H88.45z"/>
		<path class="st1" d="M90.38,40.68v-1.19h0.49v1.17c0,0.4,0.18,0.57,0.47,0.57c0.3,0,0.47-0.17,0.47-0.57v-1.17h0.49v1.19
			c0,0.63-0.36,0.97-0.96,0.97C90.74,41.66,90.38,41.31,90.38,40.68z"/>
		<path class="st1" d="M94.75,39.49v2.13h-0.4l-1.06-1.29v1.29H92.8v-2.13h0.41l1.06,1.29v-1.29H94.75z"/>
		<path class="st1" d="M95.25,39.49h0.49v2.13h-0.49V39.49z"/>
		<path class="st1" d="M98.29,39.49l-0.92,2.13h-0.49l-0.92-2.13h0.53l0.65,1.52l0.66-1.52H98.29z"/>
		<path class="st1" d="M100.11,41.23v0.39h-1.65v-2.13h1.61v0.39h-1.12v0.46h0.99v0.38h-0.99v0.49H100.11z"/>
		<path class="st1" d="M101.86,41.62l-0.41-0.59h-0.02H101v0.59h-0.49v-2.13h0.92c0.57,0,0.92,0.29,0.92,0.77
			c0,0.32-0.16,0.55-0.44,0.67l0.48,0.68H101.86z M101.4,39.89H101v0.74h0.4c0.3,0,0.45-0.14,0.45-0.37
			C101.85,40.03,101.7,39.89,101.4,39.89z"/>
		<path class="st1" d="M102.57,41.41l0.17-0.37c0.18,0.13,0.45,0.22,0.7,0.22c0.29,0,0.41-0.1,0.41-0.23c0-0.4-1.24-0.12-1.24-0.92
			c0-0.36,0.29-0.66,0.9-0.66c0.27,0,0.54,0.06,0.74,0.19l-0.15,0.37c-0.2-0.11-0.4-0.17-0.59-0.17c-0.29,0-0.4,0.11-0.4,0.24
			c0,0.39,1.24,0.12,1.24,0.9c0,0.36-0.29,0.66-0.9,0.66C103.1,41.66,102.76,41.56,102.57,41.41z"/>
		<path class="st1" d="M104.68,39.49h0.49v2.13h-0.49V39.49z"/>
		<path class="st1" d="M105.68,39.49h0.97c0.7,0,1.17,0.42,1.17,1.06s-0.48,1.06-1.17,1.06h-0.97V39.49z M106.62,41.22
			c0.42,0,0.7-0.25,0.7-0.66s-0.28-0.66-0.7-0.66h-0.45v1.32H106.62z"/>
		<path class="st1" d="M109.56,41.16h-0.99l-0.19,0.46h-0.5l0.95-2.13h0.49l0.95,2.13h-0.52L109.56,41.16z M109.41,40.79l-0.34-0.81
			l-0.34,0.81H109.41z"/>
		<path class="st1" d="M110.49,39.49h0.97c0.7,0,1.17,0.42,1.17,1.06s-0.48,1.06-1.17,1.06h-0.97V39.49z M111.44,41.22
			c0.42,0,0.7-0.25,0.7-0.66s-0.28-0.66-0.7-0.66h-0.45v1.32H111.44z"/>
		<path class="st1" d="M115.51,41.23v0.39h-1.65v-2.13h1.61v0.39h-1.12v0.46h0.99v0.38h-0.99v0.49H115.51z"/>
		<path class="st1" d="M115.74,41.41l0.17-0.37c0.18,0.13,0.45,0.22,0.7,0.22c0.29,0,0.41-0.1,0.41-0.23c0-0.4-1.24-0.12-1.24-0.92
			c0-0.36,0.29-0.66,0.9-0.66c0.27,0,0.54,0.06,0.74,0.19l-0.15,0.37c-0.2-0.11-0.4-0.17-0.59-0.17c-0.29,0-0.4,0.11-0.4,0.24
			c0,0.39,1.24,0.12,1.24,0.9c0,0.36-0.29,0.66-0.9,0.66C116.27,41.66,115.93,41.56,115.74,41.41z"/>
		<path class="st1" d="M118.26,39.89h-0.68v-0.4h1.85v0.4h-0.68v1.73h-0.49V39.89z"/>
		<path class="st1" d="M120.99,41.16h-0.99l-0.19,0.46h-0.5l0.95-2.13h0.49l0.95,2.13h-0.52L120.99,41.16z M120.84,40.79l-0.34-0.81
			l-0.34,0.81H120.84z"/>
		<path class="st1" d="M122.26,39.89h-0.68v-0.4h1.85v0.4h-0.68v1.73h-0.49V39.89z"/>
		<path class="st1" d="M124.99,41.16H124l-0.19,0.46h-0.5l0.95-2.13h0.49l0.95,2.13h-0.52L124.99,41.16z M124.84,40.79l-0.34-0.81
			l-0.34,0.81H124.84z"/>
		<path class="st1" d="M125.92,39.49h0.49v1.73h1.07v0.4h-1.56V39.49z"/>
		<path class="st1" d="M128.62,39.49h0.97c0.7,0,1.17,0.42,1.17,1.06s-0.48,1.06-1.17,1.06h-0.97V39.49z M129.56,41.22
			c0.42,0,0.7-0.25,0.7-0.66s-0.28-0.66-0.7-0.66h-0.45v1.32H129.56z"/>
		<path class="st1" d="M132.78,41.23v0.39h-1.65v-2.13h1.61v0.39h-1.12v0.46h0.99v0.38h-0.99v0.49H132.78z"/>
		<path class="st1" d="M135.97,41.62l0-1.28l-0.63,1.05h-0.22l-0.62-1.02v1.25h-0.46v-2.13h0.41l0.8,1.32l0.78-1.32h0.4l0.01,2.13
			H135.97z"/>
		<path class="st1" d="M136.94,39.49h0.49v2.13h-0.49V39.49z"/>
		<path class="st1" d="M137.94,39.49h0.49v1.73h1.07v0.4h-1.56V39.49z"/>
		<path class="st1" d="M141.2,41.16h-0.99l-0.19,0.46h-0.5l0.95-2.13h0.49l0.95,2.13h-0.52L141.2,41.16z M141.04,40.79l-0.34-0.81
			l-0.34,0.81H141.04z"/>
		<path class="st1" d="M143.53,40.52h0.45v0.86c-0.23,0.18-0.56,0.27-0.86,0.27c-0.67,0-1.16-0.46-1.16-1.1s0.49-1.1,1.17-1.1
			c0.37,0,0.68,0.13,0.89,0.37l-0.32,0.29c-0.16-0.16-0.33-0.24-0.55-0.24c-0.41,0-0.7,0.28-0.7,0.68c0,0.4,0.28,0.68,0.69,0.68
			c0.13,0,0.26-0.02,0.38-0.09V40.52z"/>
		<path class="st1" d="M145.8,41.62l-0.41-0.59h-0.02h-0.43v0.59h-0.49v-2.13h0.92c0.57,0,0.92,0.29,0.92,0.77
			c0,0.32-0.16,0.55-0.44,0.67l0.48,0.68H145.8z M145.33,39.89h-0.4v0.74h0.4c0.3,0,0.45-0.14,0.45-0.37
			C145.79,40.03,145.64,39.89,145.33,39.89z"/>
		<path class="st1" d="M146.54,40.56c0-0.63,0.49-1.1,1.16-1.1c0.67,0,1.16,0.47,1.16,1.1s-0.5,1.1-1.16,1.1
			C147.04,41.66,146.54,41.19,146.54,40.56z M148.37,40.56c0-0.4-0.29-0.68-0.67-0.68c-0.38,0-0.67,0.28-0.67,0.68
			s0.29,0.68,0.67,0.68C148.09,41.24,148.37,40.96,148.37,40.56z"/>
	</g>
	<g>
		<path class="st1" d="M43.12,20.96l-13.05-7.53c-1.49-0.86-3.33-0.86-4.82,0L12.2,20.96c-1.49,0.86-2.41,2.46-2.41,4.17V40.2
			c0,1.72,0.92,3.32,2.41,4.17l13.05,7.53c0.74,0.43,1.58,0.64,2.41,0.64c0.83,0,1.67-0.21,2.41-0.64l13.05-7.53
			c1.49-0.86,2.41-2.46,2.41-4.17V25.13C45.53,23.41,44.61,21.81,43.12,20.96z M43.93,40.4c0,1.03-0.55,1.98-1.44,2.49L29.1,50.62
			c-0.89,0.51-1.99,0.51-2.88,0l-13.39-7.73c-0.89-0.51-1.44-1.46-1.44-2.49V24.93c0-1.03,0.55-1.98,1.44-2.49l13.39-7.73
			c0.89-0.51,1.99-0.51,2.88,0l13.39,7.73c0.89,0.51,1.44,1.46,1.44,2.49V40.4z"/>
		<path class="st1" d="M39.96,37.26c-0.28-0.17-0.55-0.33-0.74-0.54c-0.01-0.01-0.02-0.02-0.04-0.02H16.3
			c-0.01,0-0.03,0.01-0.04,0.02c-0.2,0.21-0.46,0.37-0.74,0.54c-0.61,0.37-1.24,0.75-1.24,1.66c0,0.02,0.01,0.04,0.03,0.05
			l2.25,0.94c0.01,0,0.02,0,0.03,0l3.02-0.93l2.26,0.84l-2.99,0.95c-0.02,0.01-0.04,0.03-0.04,0.05c0,0.02,0.01,0.04,0.03,0.05
			l2.75,1.14c0.01,0,0.01,0,0.02,0c0.01,0,0.01,0,0.02,0l3.14-1.1l2.85,1.06l-2.87,1.26c-0.02,0.01-0.03,0.03-0.03,0.05
			s0.01,0.04,0.03,0.05l2.91,1.21c0.01,0,0.01,0,0.02,0s0.01,0,0.02,0l2.91-1.21c0.02-0.01,0.03-0.03,0.03-0.05
			s-0.01-0.04-0.03-0.05l-2.87-1.26l2.85-1.06l3.14,1.1c0.01,0,0.01,0,0.02,0c0.01,0,0.01,0,0.02,0l2.75-1.14
			c0.02-0.01,0.03-0.03,0.03-0.05c0-0.02-0.02-0.04-0.04-0.05l-2.99-0.95l2.26-0.84l3.02,0.93c0,0,0.01,0,0.01,0
			c0.01,0,0.01,0,0.02,0l2.25-0.94c0.02-0.01,0.03-0.03,0.03-0.05C41.2,38.02,40.57,37.64,39.96,37.26z M24.89,38.98h0.49l2.34,0.81
			l-2.89,1.02l-2.61-0.97L24.89,38.98z M27.76,39.79l2.34-0.81h0.49l2.67,0.85l-2.61,0.97L27.76,39.79z"/>
		<path class="st1" d="M17.18,36.16h4.63h2.35h0.02h0.62c-0.07,0-0.13-0.06-0.13-0.14v-0.59c0-0.34,0.28-0.61,0.61-0.61h0.08v-0.24
			c-0.16-0.05-0.29-0.19-0.29-0.37c0-0.21,0.17-0.39,0.39-0.39h0.15c0.64-1.3,0.96-2.94,1.04-3.43h-0.23
			c-0.21,0-0.39-0.17-0.39-0.39s0.17-0.39,0.39-0.39h0.22c-0.18-0.24-0.3-0.53-0.3-0.86c0-0.78,0.64-1.42,1.42-1.42
			c0.78,0,1.42,0.64,1.42,1.42c0,0.32-0.11,0.62-0.3,0.86h0.3c0.21,0,0.39,0.17,0.39,0.39s-0.17,0.39-0.39,0.39h-0.34
			c0.06,0.45,0.31,1.95,1.05,3.43h0.15c0.21,0,0.39,0.17,0.39,0.39c0,0.18-0.12,0.32-0.29,0.37v0.24h0.08
			c0.34,0,0.61,0.28,0.61,0.61v0.59c0,0.07-0.06,0.13-0.13,0.14h0.43h0.14c0.02,0.01,0.05,0.02,0.07,0.02h7.78
			c0.09,0,0.16-0.07,0.16-0.16v-0.7c0-0.4-0.33-0.73-0.73-0.73h-0.1v-0.28c0.2-0.05,0.34-0.23,0.34-0.44c0-0.25-0.21-0.46-0.46-0.46
			h-0.26l-0.54-0.54l0.77-0.77c0.06-0.06,0.06-0.17,0-0.23l-1.59-0.81c0.39-0.34,1.5-0.75,1.72-1.21c0.27-0.54,0.41-1.12,0.41-1.73
			c0-1.04-0.4-2.01-1.14-2.74c-0.73-0.73-1.71-1.14-2.74-1.14c-0.04,0-0.08,0.02-0.12,0.05l-2.88,2.88c-0.06,0.06-0.06,0.17,0,0.23
			l1.11,1.11c0.03,0.03,0.07,0.05,0.12,0.05c0,0,0,0,0,0c0.04,0,0.09-0.02,0.12-0.05c0.01-0.01,1.06-1.07,1.79-0.58
			c-0.67,1.08-2.56,3.95-2.58,3.98c-0.03,0.05-0.04,0.12,0,0.17l0.82,1.34h-0.42c-0.25,0-0.46,0.21-0.46,0.46
			c0,0.21,0.14,0.39,0.34,0.44v0.19l-1.34-0.06c-0.41-0.08-0.49-0.41-0.52-0.83l-0.03-0.39l-0.24-3.45
			c0.28-0.03,0.48-0.27,0.47-0.55c-0.02-0.28-0.26-0.49-0.54-0.48l-0.08-0.13l-0.31-3.95c0.3-0.05,0.53-0.25,0.53-0.5
			c0-0.15-0.09-0.29-0.22-0.38c0.14-0.12,0.22-0.28,0.22-0.45v-1.58c0-0.1-0.1-0.18-0.23-0.18h-1.1c-0.13,0-0.23,0.08-0.23,0.18
			v0.58h-0.64v-0.58c0-0.1-0.1-0.18-0.23-0.18h-1.1c-0.13,0-0.23,0.08-0.23,0.18v0.58h-0.64v-0.58c0-0.1-0.1-0.18-0.23-0.18H25
			c-0.13,0-0.23,0.08-0.23,0.18v1.58c0,0.17,0.09,0.33,0.22,0.45c-0.14,0.09-0.22,0.23-0.22,0.38c0,0.25,0.23,0.45,0.53,0.5
			l-0.31,3.95l-0.08,0.13c-0.28-0.01-0.52,0.2-0.54,0.48c-0.02,0.28,0.19,0.52,0.46,0.55l-0.24,3.45l-0.03,0.39
			c-0.07,0.25-0.16,0.66-0.53,0.8c-0.4,0.15-1.03,0.1-1.31,0.09v-0.2c0.2-0.05,0.34-0.23,0.34-0.44c0-0.25-0.21-0.46-0.46-0.46
			h-0.42l0.82-1.34c0.03-0.05,0.03-0.12,0-0.17c-0.02-0.03-1.91-2.89-2.58-3.98c0.73-0.49,1.78,0.57,1.79,0.58
			c0.03,0.03,0.07,0.05,0.12,0.05c0,0,0,0,0,0c0.04,0,0.08-0.02,0.12-0.05l1.11-1.11c0.06-0.06,0.06-0.17,0-0.23l-2.88-2.88
			c-0.03-0.03-0.07-0.05-0.12-0.05c-1.04,0-2.01,0.4-2.74,1.14c-0.73,0.73-1.14,1.71-1.14,2.74c0,0.61,0.14,1.19,0.41,1.73
			c0.23,0.46,0.55,0.88,0.94,1.21l-0.81,0.81c-0.06,0.06-0.06,0.17,0,0.23l0.77,0.77l-0.54,0.54h-0.26c-0.25,0-0.46,0.21-0.46,0.46
			c0,0.21,0.14,0.39,0.34,0.44v0.28h-0.1c-0.4,0-0.73,0.33-0.73,0.73v0.7C16.23,36.08,17.09,36.16,17.18,36.16z"/>
	</g>
</g>
</svg>
