<?xml version="1.0" encoding="utf-8"?>
<!-- Generator: Adobe Illustrator 26.0.0, SVG Export Plug-In . SVG Version: 6.00 Build 0)  -->
<svg version="1.1" id="Capa_1" xmlns="http://www.w3.org/2000/svg" xmlns:xlink="http://www.w3.org/1999/xlink" x="0px" y="0px"
	 viewBox="0 0 115 115" style="enable-background:new 0 0 115 115;" xml:space="preserve">
<style type="text/css">
	.st0{enable-background:new    ;}
	.st1{fill:#E6892F;}
</style>
<g>
	<g>
		<g>
			<g class="st0">
				<path class="st1" d="M20.4,83.2c0-5.8,4.4-9.9,10.5-9.9c3.5,0,6.3,1.3,8.2,3.6L35.6,80c-1.2-1.4-2.7-2.2-4.5-2.2
					c-3.1,0-5.3,2.2-5.3,5.4s2.2,5.4,5.3,5.4c1.8,0,3.3-0.8,4.5-2.2l3.4,3.1c-1.9,2.3-4.7,3.6-8.2,3.6C24.8,93.1,20.4,89,20.4,83.2z
					"/>
				<path class="st1" d="M46.8,77.8V82h8.4v4.2h-8.4v6.5h-5.4v-19h14.9v4.2L46.8,77.8L46.8,77.8z"/>
				<path class="st1" d="M70.9,89h-8.1l-1.5,3.7h-5.5l8.4-19h5.3l8.4,19h-5.6L70.9,89z M69.3,85l-2.4-6.1L64.4,85H69.3z"/>
				<path class="st1" d="M94.8,88.6v4.2H79.5v-19h14.9V78h-9.6v3h8.5v4h-8.5v3.5L94.8,88.6L94.8,88.6z"/>
			</g>
		</g>
		<g class="st0">
			<path class="st1" d="M20.2,95.5c0-0.5,0.4-0.9,0.9-0.9c0.3,0,0.5,0.1,0.7,0.3l-0.3,0.2c0-0.1-0.1-0.1-0.3-0.1
				c-0.3,0-0.6,0.2-0.6,0.6c0,0.3,0.2,0.5,0.6,0.5c0.2,0,0.3-0.1,0.4-0.2l0.3,0.2c-0.2,0.2-0.4,0.3-0.7,0.3
				C20.6,96.4,20.2,96,20.2,95.5z"/>
			<path class="st1" d="M23.5,96.1v0.3h-1.3v-1.7h1.3V95h-0.9v0.4h0.8v0.3h-0.8v0.4C22.6,96.1,23.5,96.1,23.5,96.1z"/>
			<path class="st1" d="M25.4,94.7v1.7h-0.3l-0.9-1v1h-0.4v-1.7h0.3l0.9,1v-1H25.4z"/>
			<path class="st1" d="M26.1,95h-0.6v-0.3H27V95h-0.6v1.4H26V95H26.1z"/>
			<path class="st1" d="M28.4,96.4l-0.3-0.5l0,0h-0.3v0.5h-0.4v-1.7h0.7c0.5,0,0.7,0.2,0.7,0.6c0,0.3-0.1,0.4-0.4,0.5l0.4,0.6H28.4z
				 M28,95h-0.3v0.6H28c0.2,0,0.4-0.1,0.4-0.3C28.4,95.1,28.3,95,28,95z"/>
			<path class="st1" d="M29,95.5c0-0.5,0.4-0.9,0.9-0.9c0.5,0,0.9,0.4,0.9,0.9s-0.4,0.9-0.9,0.9C29.4,96.4,29,96,29,95.5z
				 M30.5,95.5c0-0.3-0.2-0.6-0.5-0.6s-0.5,0.2-0.5,0.6c0,0.3,0.2,0.5,0.5,0.5S30.5,95.9,30.5,95.5z"/>
			<path class="st1" d="M31.9,94.7h0.8c0.6,0,0.9,0.3,0.9,0.9c0,0.5-0.4,0.9-0.9,0.9h-0.8V94.7z M32.6,96.1c0.3,0,0.6-0.2,0.6-0.5
				s-0.2-0.5-0.6-0.5h-0.4v1.1L32.6,96.1L32.6,96.1z"/>
			<path class="st1" d="M35.2,96.1v0.3h-1.3v-1.7h1.3V95h-0.9v0.4h0.8v0.3h-0.8v0.4C34.3,96.1,35.2,96.1,35.2,96.1z"/>
			<path class="st1" d="M36.7,95v0.5h0.8v0.3h-0.8v0.6h-0.4v-1.7h1.3V95H36.7z"/>
			<path class="st1" d="M37.7,95.5c0-0.5,0.4-0.9,0.9-0.9s0.9,0.4,0.9,0.9s-0.4,0.9-0.9,0.9S37.7,96,37.7,95.5z M39.2,95.5
				c0-0.3-0.2-0.6-0.5-0.6c-0.3,0-0.5,0.2-0.5,0.6c0,0.3,0.2,0.5,0.5,0.5C39,96,39.2,95.9,39.2,95.5z"/>
			<path class="st1" d="M41,96.4l-0.3-0.5l0,0h-0.3v0.5H40v-1.7h0.7c0.5,0,0.7,0.2,0.7,0.6c0,0.3-0.1,0.4-0.4,0.5l0.4,0.6H41z
				 M40.6,95h-0.3v0.6h0.3c0.2,0,0.4-0.1,0.4-0.3C41,95.1,40.9,95,40.6,95z"/>
			<path class="st1" d="M42,95h-0.6v-0.3H43V95h-0.6v1.4H42V95z"/>
			<path class="st1" d="M44.2,96h-0.8l-0.2,0.4h-0.4l0.8-1.7H44l0.8,1.7h-0.4L44.2,96z M44.1,95.7L43.8,95l-0.3,0.7H44.1z"/>
			<path class="st1" d="M45,94.7h0.4v1.4h0.9v0.3H45V94.7z"/>
			<path class="st1" d="M47.8,96.1v0.3h-1.3v-1.7h1.3V95h-0.9v0.4h0.8v0.3h-0.8v0.4C46.9,96.1,47.8,96.1,47.8,96.1z"/>
			<path class="st1" d="M48,95.5c0-0.5,0.4-0.9,0.9-0.9c0.3,0,0.5,0.1,0.7,0.3l-0.3,0.2c0-0.1-0.2-0.1-0.3-0.1
				c-0.3,0-0.6,0.2-0.6,0.6c0,0.3,0.2,0.5,0.6,0.5c0.2,0,0.3-0.1,0.4-0.2l0.3,0.2c-0.2,0.2-0.4,0.3-0.7,0.3C48.4,96.4,48,96,48,95.5
				z"/>
			<path class="st1" d="M49.9,94.7h0.4v1.7h-0.4V94.7z"/>
			<path class="st1" d="M52.3,96.4v-1l-0.5,0.9h-0.2l-0.5-0.8v1h-0.4v-1.7H51l0.6,1.1l0.6-1.1h0.3v1.7L52.3,96.4L52.3,96.4z"/>
			<path class="st1" d="M53.1,94.7h0.4v1.7h-0.4V94.7z"/>
			<path class="st1" d="M55.2,96.1v0.3h-1.3v-1.7h1.3V95h-0.9v0.4h0.8v0.3h-0.8v0.4C54.3,96.1,55.2,96.1,55.2,96.1z"/>
			<path class="st1" d="M57.1,94.7v1.7h-0.3l-0.9-1v1h-0.4v-1.7h0.3l0.9,1v-1H57.1z"/>
			<path class="st1" d="M57.9,95h-0.5v-0.3h1.5V95h-0.5v1.4H58L57.9,95L57.9,95z"/>
			<path class="st1" d="M58.9,95.5c0-0.5,0.4-0.9,0.9-0.9s0.9,0.4,0.9,0.9s-0.4,0.9-0.9,0.9C59.3,96.4,58.9,96,58.9,95.5z
				 M60.4,95.5c0-0.3-0.2-0.6-0.5-0.6c-0.3,0-0.5,0.2-0.5,0.6c0,0.3,0.2,0.5,0.5,0.5C60.1,96.1,60.4,95.9,60.4,95.5z"/>
			<path class="st1" d="M61.8,94.7h0.8c0.6,0,0.9,0.3,0.9,0.9c0,0.5-0.4,0.9-0.9,0.9h-0.8V94.7z M62.5,96.1c0.3,0,0.6-0.2,0.6-0.5
				s-0.2-0.5-0.6-0.5h-0.4v1.1L62.5,96.1L62.5,96.1z"/>
			<path class="st1" d="M65.1,96.1v0.3h-1.3v-1.7h1.3V95h-0.9v0.4H65v0.3h-0.8v0.4C64.2,96.1,65.1,96.1,65.1,96.1z"/>
			<path class="st1" d="M67.3,96h-0.8l-0.2,0.4h-0.4l0.8-1.7h0.4l0.8,1.7h-0.4L67.3,96z M67.2,95.7L66.9,95l-0.3,0.7H67.2z M67,94.5
				h-0.3l0.3-0.4h0.4L67,94.5z"/>
			<path class="st1" d="M69.1,96.4l-0.3-0.5l0,0h-0.3v0.5H68v-1.7h0.7c0.5,0,0.7,0.2,0.7,0.6c0,0.3-0.1,0.4-0.4,0.5l0.4,0.6H69.1z
				 M68.8,95h-0.3v0.6h0.3c0.2,0,0.4-0.1,0.4-0.3C69.1,95.1,69,95,68.8,95z"/>
			<path class="st1" d="M71.2,96.1v0.3h-1.3v-1.7h1.3V95h-0.9v0.4H71v0.3h-0.8v0.4C70.2,96.1,71.2,96.1,71.2,96.1z"/>
			<path class="st1" d="M72.6,96h-0.8l-0.2,0.4h-0.4l0.8-1.7h0.4l0.8,1.7h-0.4L72.6,96z M72.5,95.7L72.2,95L72,95.7H72.5z"/>
			<path class="st1" d="M73.2,96.2l0.1-0.3c0.1,0.1,0.4,0.2,0.6,0.2s0.3-0.1,0.3-0.2c0-0.3-1-0.1-1-0.7c0-0.3,0.2-0.5,0.7-0.5
				c0.2,0,0.4,0.1,0.6,0.2l-0.1,0.3C74.3,95,74.1,95,74,95c-0.2,0-0.3,0.1-0.3,0.2c0,0.3,1,0.1,1,0.7c0,0.3-0.2,0.5-0.7,0.5
				C73.7,96.4,73.4,96.3,73.2,96.2z"/>
			<path class="st1" d="M77,96.1v0.3h-1.3v-1.7H77V95h-1v0.4h0.8v0.3H76v0.4C76,96.1,77,96.1,77,96.1z"/>
			<path class="st1" d="M77.2,96.2l0.1-0.3c0.1,0.1,0.4,0.2,0.6,0.2s0.3-0.1,0.3-0.2c0-0.3-1-0.1-1-0.7c0-0.3,0.2-0.5,0.7-0.5
				c0.2,0,0.4,0.1,0.6,0.2l-0.1,0.3C78.2,95,78.1,95,77.9,95s-0.3,0.1-0.3,0.2c0,0.3,1,0.1,1,0.7c0,0.3-0.2,0.5-0.7,0.5
				C77.6,96.4,77.3,96.3,77.2,96.2z"/>
			<path class="st1" d="M79.2,95h-0.5v-0.3h1.5V95h-0.5v1.4h-0.4L79.2,95L79.2,95z"/>
			<path class="st1" d="M81.4,96.4l-0.3-0.5l0,0h-0.3v0.5h-0.4v-1.7h0.7c0.5,0,0.7,0.2,0.7,0.6c0,0.3-0.1,0.4-0.4,0.5l0.4,0.6H81.4z
				 M81.1,95h-0.3v0.6h0.3c0.2,0,0.4-0.1,0.4-0.3C81.4,95.1,81.3,95,81.1,95z"/>
			<path class="st1" d="M83.3,96h-0.8l-0.2,0.4h-0.4l0.8-1.7h0.4l0.8,1.7h-0.4L83.3,96z M83.2,95.7L82.9,95l-0.3,0.7H83.2z"/>
			<path class="st1" d="M84.3,95h-0.5v-0.3h1.5V95h-0.5v1.4h-0.4L84.3,95L84.3,95z"/>
			<path class="st1" d="M86.8,96.1v0.3h-1.3v-1.7h1.3V95h-0.9v0.4h0.8v0.3h-0.8v0.4C85.9,96.1,86.8,96.1,86.8,96.1z M86.2,94.5h-0.3
				l0.3-0.4h0.4L86.2,94.5z"/>
			<path class="st1" d="M88.3,95.5h0.4v0.7c-0.2,0.1-0.5,0.2-0.7,0.2c-0.5,0-0.9-0.4-0.9-0.9s0.4-0.9,0.9-0.9c0.3,0,0.6,0.1,0.7,0.3
				l-0.3,0.2C88.3,95,88.1,95,88,95c-0.3,0-0.6,0.2-0.6,0.6c0,0.3,0.2,0.5,0.6,0.5c0.1,0,0.2,0,0.3-0.1V95.5z"/>
			<path class="st1" d="M89,94.7h0.4v1.7H89V94.7z"/>
			<path class="st1" d="M89.7,95.5c0-0.5,0.4-0.9,0.9-0.9c0.3,0,0.5,0.1,0.7,0.3L91,95.1c0-0.1-0.2-0.1-0.3-0.1
				c-0.3,0-0.6,0.2-0.6,0.6c0,0.3,0.2,0.5,0.6,0.5c0.2,0,0.3-0.1,0.4-0.2l0.3,0.2c-0.2,0.2-0.4,0.3-0.7,0.3
				C90.1,96.4,89.7,96,89.7,95.5z"/>
			<path class="st1" d="M92.7,96h-0.8l-0.2,0.4h-0.4l0.8-1.7h0.4l0.8,1.7h-0.4L92.7,96z M92.6,95.7L92.3,95L92,95.7H92.6z"/>
			<path class="st1" d="M93.3,96.2l0.1-0.3c0.1,0.1,0.4,0.2,0.6,0.2s0.3-0.1,0.3-0.2c0-0.3-1-0.1-1-0.7c0-0.3,0.2-0.5,0.7-0.5
				c0.2,0,0.4,0.1,0.6,0.2l-0.1,0.3C94.4,95,94.2,95,94.1,95c-0.2,0-0.3,0.1-0.3,0.2c0,0.3,1,0.1,1,0.7c0,0.3-0.2,0.5-0.7,0.5
				C93.8,96.4,93.5,96.3,93.3,96.2z"/>
		</g>
	</g>
	<g>
		<path class="st1" d="M79.4,26.6L60.9,15.9c-2.1-1.2-4.7-1.2-6.8,0L35.6,26.6c-2.1,1.2-3.4,3.5-3.4,5.9v21.3c0,2.4,1.3,4.7,3.4,5.9
			l18.5,10.7c1,0.6,2.2,0.9,3.4,0.9s2.4-0.3,3.4-0.9l18.5-10.7c2.1-1.2,3.4-3.5,3.4-5.9V32.5C82.8,30,81.5,27.8,79.4,26.6z
			 M80.5,54.1c0,1.5-0.8,2.8-2,3.5l-19,11c-1.3,0.7-2.8,0.7-4.1,0l-19-11c-1.3-0.7-2-2.1-2-3.5V32.2c0-1.5,0.8-2.8,2-3.5l19-10.9
			c1.3-0.7,2.8-0.7,4.1,0l19,10.9c1.3,0.7,2,2.1,2,3.5V54.1z"/>
		<path class="st1" d="M64.5,55.5L64.5,55.5v-1.3c0-0.3-0.3-0.6-0.6-0.6h-0.8c0,0,0,0-0.1-0.1l-1-1l1.4-1.4c0.1-0.1,0.2-0.3,0.2-0.5
			s-0.1-0.4-0.2-0.5L62,48.7c0.8-0.7,1.4-1.6,1.8-2.5c0.3-0.6,0.5-1.2,0.7-1.9s0.2-1.3,0.2-2c0-1.2-0.2-2.3-0.7-3.4
			c-0.4-1-1.1-2-1.9-2.8c-0.8-0.8-1.7-1.4-2.8-1.9s-2.2-0.7-3.4-0.7c-0.2,0-0.4,0.1-0.5,0.2L49.3,40c-0.1,0.1-0.2,0.3-0.2,0.5
			s0.1,0.4,0.2,0.5l2.4,2.4c0.1,0.1,0.3,0.2,0.5,0.2l0,0c0.2,0,0.4-0.1,0.5-0.2c0,0,0.6-0.6,1.4-1.1c0.7-0.3,1.2-0.5,1.6-0.3
			c-1.4,2.2-4.4,6.8-5.3,8.2c-0.2,0.2-0.2,0.5,0,0.8l1.6,2.6h-0.9c-0.3,0-0.6,0.3-0.6,0.6v1.3l0,0c-1.1,0-2,0.9-2,2v1.7
			c0,0.3,0.3,0.6,0.6,0.6h16.8c0.3,0,0.6-0.3,0.6-0.6v-1.7C66.5,56.4,65.6,55.5,64.5,55.5z M51.9,50.7c1.1-1.6,4.4-6.7,5.5-8.5
			c0.2-0.3,0.1-0.7-0.1-0.9c-0.7-0.6-1.9-1.2-3.8-0.2c-0.5,0.3-0.9,0.6-1.2,0.8l-1.4-1.4l5.5-5.5c3.9,0.2,7,3.4,7,7.3
			c0,2.3-1,4.4-2.8,5.8c-0.2,0.1-0.3,0.3-0.3,0.5s0.1,0.4,0.2,0.5l1.5,1.5L60.5,52c-0.1,0.1-0.2,0.3-0.2,0.5s0.1,0.4,0.2,0.5
			l0.6,0.6h-7.4L51.9,50.7z M52,54.9h11v0.5H52V54.9z M65.1,58.3H49.9v-0.9c0-0.3,0.4-0.6,0.8-0.6h0.6h12.3h0.6
			c0.5,0,0.8,0.3,0.8,0.6L65.1,58.3L65.1,58.3z"/>
		<path class="st1" d="M73.1,40.1c0-0.5-0.2-0.9-0.4-1.3l-0.1-0.1c-0.4-0.4-0.9-0.5-1.5-0.5c-0.2,0-0.5,0-0.7,0h-0.3
			c-0.3,0-0.6,0-0.8,0c-0.1,0-0.2,0-0.2,0c-0.2-0.6-0.5-1.1-0.7-1.7l-0.2-0.4l0.5-0.5c0.3-0.3,0.7-0.6,1-1c0.8-0.8,0.8-1.9,0-2.8
			c-0.7-0.8-1.5-1.5-2.3-2.3s-2-0.8-2.8,0c-0.2,0.2-0.3,0.3-0.5,0.5c-0.3,0.3-0.6,0.6-0.9,0.9H63c-0.3-0.1-0.6-0.2-0.9-0.4
			c-0.3-0.1-0.7-0.3-1-0.4c-0.1,0-0.2-0.1-0.2-0.2c0-0.6,0-1.2,0-1.9c0-1.1-0.8-1.9-1.9-1.9c-1.1,0-2.3,0-3.5,0
			c-1.1,0-1.9,0.8-1.9,1.9c0,0.7,0,1.4,0,2c0,0.1,0,0.1-0.2,0.2c-0.6,0.2-1.2,0.5-1.8,0.8c-0.1,0.1-0.2,0.1-0.3,0
			c-0.3-0.3-0.6-0.6-1-1L50,29.7c-0.9-0.9-2-0.9-2.9,0c-0.7,0.7-1.5,1.5-2.2,2.2c-0.9,0.9-0.9,2,0,2.9c0.3,0.3,0.7,0.7,1,1l0.3,0.3
			L46,36.6c-0.2,0.5-0.4,1.1-0.7,1.7c0,0-0.1,0.1-0.2,0.1c-0.3,0-0.5,0-0.8,0h-0.4c-0.1,0-0.2,0-0.2,0c-0.2,0-0.3,0-0.5,0l0,0H43
			c-1,0-1.8,0.8-1.8,1.8c0,0.9,0,1.8,0,2.8v0.7c0,0.2,0,0.3,0,0.5s0.1,0.3,0.2,0.5c0,0,0,0.1,0.1,0.1c0.1,0.2,0.3,0.4,0.5,0.5
			l0.1,0.1c0.2,0.2,0.5,0.3,0.8,0.3c0.1,0,0.2,0,0.3,0c0.5,0,1,0,1.5,0h0.5l0.2,0.5c0.2,0.6,0.5,1.1,0.7,1.7c0,0,0,0.1-0.1,0.2
			c-0.3,0.3-0.5,0.5-0.8,0.8c-0.2,0.2-0.3,0.3-0.5,0.5c-0.9,0.8-0.9,2,0,2.8l0.3,0.3c0.7,0.7,1.4,1.5,2.1,2.2
			c0.4,0.4,0.8,0.6,1.3,0.6c0.2,0,0.5,0,0.7-0.1l0.2-0.1c0,0,0.1,0,0.1-0.1l0,0l0,0l0,0c0.3-0.1,0.4-0.3,0.5-0.4l0,0c0,0,0,0,0-0.1
			l0,0c0-0.1,0-0.1,0-0.1l0,0l0,0c0,0,0,0,0-0.1s0-0.1,0-0.2l0,0l0,0c-0.2-0.3-0.5-0.5-1-0.3l0,0l0,0c-0.2,0.1-0.4,0.1-0.5,0.1
			s-0.2,0-0.4-0.3L47.4,53c-0.5-0.5-1.1-1.1-1.6-1.6c-0.3-0.3-0.3-0.5,0-0.9c0.6-0.6,1.2-1.2,1.9-1.8c0.2-0.2,0.3-0.4,0.1-0.7
			c-0.6-0.9-1-2-1.2-3.1c0,0,0-0.1,0-0.2l-0.1-0.2h-0.9c-0.7,0-1.4,0-2.1,0c-0.2,0-0.3,0-0.4-0.1c-0.1,0-0.1-0.1-0.2-0.2v-0.1
			c0-0.1,0-0.2,0-0.4v-0.3c0-0.9,0-1.8,0-2.7c0-0.5,0.1-0.6,0.6-0.6h1c0.5,0,1,0,1.6,0c0.1,0,0.3-0.1,0.4-0.2l0.1-0.1v-0.1
			c0.3-1.2,0.8-2.3,1.4-3.3l0.1-0.2L48,35.5c-0.1-0.1-0.1-0.1-0.2-0.2l-0.7-0.7c-0.4-0.4-0.8-0.8-1.2-1.2c-0.3-0.3-0.3-0.5,0-0.7
			c0.7-0.8,1.5-1.6,2.4-2.4c0.2-0.2,0.5-0.2,0.7,0c0.4,0.3,0.7,0.7,1.1,1.1c0.2,0.2,0.4,0.4,0.6,0.6l0.5,0.5l0.2-0.1
			c1.1-0.7,2.1-1.1,3.2-1.4c0.3-0.1,0.4-0.3,0.4-0.5c0-0.8,0-1.6,0-2.5v-0.2c0-0.4,0.2-0.6,0.6-0.6c1,0,2.1,0,3.2,0
			c0.4,0,0.6,0.2,0.6,0.6c0,0.5,0,1,0,1.5v0.6c0,0.5,0,0.7,0.1,0.9c0.1,0.2,0.3,0.2,0.8,0.4l0,0c0.1,0,0.1,0,0.2,0.1
			c0.7,0.3,1.3,0.6,2,0.9l0.8,0.3l0.9-0.9c0.4-0.4,0.8-0.8,1.2-1.2c0.3-0.4,0.5-0.4,0.9,0c0.7,0.7,1.4,1.5,2.2,2.2
			c0.4,0.4,0.4,0.5,0,0.9c-0.5,0.5-0.9,0.9-1.4,1.4l-0.7,0.7l0.1,0.2l0.1,0.1c0.6,1,1,2,1.3,3.1c0.1,0.3,0.3,0.4,0.6,0.4
			c0.8,0,1.7,0,2.5,0h0.3c0.2,0,0.4,0.2,0.4,0.6c0,0.9,0,1.8,0,2.7v0.4c0,0.4-0.1,0.5-0.3,0.6c-0.1,0-0.2,0-0.3,0
			c-0.7,0-1.4,0-2.1,0h-0.7h-0.2L68,44.1c0,0.1,0,0.1,0,0.2c-0.2,1.1-0.7,2.2-1.2,3.1c-0.2,0.3-0.1,0.5,0.1,0.7
			c0.6,0.6,1.2,1.2,1.9,1.8c0.3,0.3,0.3,0.5,0,0.8c-0.6,0.6-1.2,1.3-1.8,1.9L66.6,53c-0.2,0.2-0.3,0.3-0.4,0.3s-0.3,0-0.5-0.2
			c0,0,0,0-0.1,0c-0.5-0.3-1,0.1-1,0.6c0,0.2,0.1,0.3,0.2,0.4c0.1,0.1,0.1,0.1,0.1,0.1s0.2,0.2,0.4,0.3c0,0,0.1,0,0.1,0.1h0.1
			c0.7,0.3,1.5,0.1,2-0.4c0.7-0.7,1.3-1.4,2-2l0.4-0.4c0.8-0.9,0.8-2-0.1-2.8c-0.2-0.2-0.3-0.3-0.5-0.5l-0.1-0.1
			c-0.2-0.2-0.5-0.5-0.8-0.7c-0.1,0-0.1-0.1-0.1-0.1c0.2-0.6,0.4-1.1,0.7-1.7l0.2-0.5h0.6c0.5,0,1,0,1.5,0c1.2,0,1.9-0.8,1.9-2
			C73.2,42.2,73.2,41.1,73.1,40.1z"/>
	</g>
</g>
</svg>
