<?xml version="1.0" encoding="utf-8"?>
<!-- Generator: Adobe Illustrator 26.0.0, SVG Export Plug-In . SVG Version: 6.00 Build 0)  -->
<svg version="1.1" id="Capa_1" xmlns="http://www.w3.org/2000/svg" xmlns:xlink="http://www.w3.org/1999/xlink" x="0px" y="0px"
	 viewBox="0 0 115 115" style="enable-background:new 0 0 115 115;" xml:space="preserve">
<style type="text/css">
	.st0{enable-background:new    ;}
	.st1{fill:#004C79;}
	.st2{fill:#E6892F;}
</style>
<g>
	<g>
		<g class="st0">
			<path class="st1" d="M18,81.9v3.3H6V70.3h11.7v3.3h-7.5v2.5h6.7v3.2h-6.6V82L18,81.9L18,81.9z"/>
			<path class="st1" d="M19.6,77.7c0-4.5,3.5-7.8,8.2-7.8c2.7,0,5,1,6.4,2.8l-2.7,2.4c-0.9-1.1-2.1-1.7-3.5-1.7
				c-2.4,0-4.2,1.7-4.2,4.3c0,2.6,1.7,4.3,4.2,4.3c1.4,0,2.6-0.6,3.5-1.7l2.7,2.4c-1.4,1.8-3.7,2.8-6.4,2.8
				C23.1,85.5,19.6,82.3,19.6,77.7z"/>
			<path class="st1" d="M35.8,78.5v-8.3H40v8.1c0,2.6,1.1,3.6,2.8,3.6s2.8-1,2.8-3.6v-8.1h4.2v8.3c0,4.5-2.6,6.9-7,6.9
				C38.4,85.5,35.8,83,35.8,78.5z"/>
			<path class="st1" d="M66.9,70.3v14.9h-3.5l-6.6-7.9v7.9h-4.1V70.3h3.5l6.6,7.9v-7.9H66.9z"/>
			<path class="st1" d="M81.8,81.9v3.3h-12V70.3h11.7v3.3H74v2.5h6.6v3.2H74V82L81.8,81.9L81.8,81.9z"/>
			<path class="st1" d="M97.6,85.2v-7.9l-3.8,6.4h-1.9l-3.8-6.2v7.7h-3.9V70.3h3.5l5.2,8.6l5.1-8.6h3.5v14.9
				C101.5,85.2,97.6,85.2,97.6,85.2z"/>
			<path class="st1" d="M104.5,70.3h4.2v14.9h-4.2V70.3z"/>
		</g>
	</g>
	<g class="st0">
		<path class="st2" d="M7.5,88.7v0.4H5.9V87h1.5v0.4h-1v0.4h1v0.4h-1v0.5C6.4,88.7,7.5,88.7,7.5,88.7z"/>
		<path class="st2" d="M7.7,88.9l0.2-0.4c0.2,0.1,0.4,0.2,0.7,0.2S9,88.6,9,88.5c0-0.4-1.2-0.1-1.2-0.9c0-0.3,0.3-0.6,0.9-0.6
			c0.2,0,0.4,0,0.6,0.2l-0.1,0.4c-0.2-0.1-0.4-0.2-0.6-0.2c-0.3,0-0.4,0.1-0.4,0.2c0,0.4,1.2,0.1,1.2,0.9c0,0.3-0.3,0.6-0.9,0.6
			C8.2,89.1,7.9,89,7.7,88.9z"/>
		<path class="st2" d="M9.6,88c0-0.6,0.5-1.1,1.1-1.1c0.4,0,0.7,0.1,0.8,0.4l-0.3,0.3c-0.1-0.2-0.3-0.2-0.5-0.2
			c-0.4,0-0.7,0.3-0.7,0.7s0.3,0.7,0.7,0.7c0.2,0,0.4-0.1,0.5-0.2l0.3,0.3c-0.2,0.2-0.5,0.4-0.8,0.4C10.1,89.1,9.6,88.7,9.6,88z"/>
		<path class="st2" d="M11.9,88.2V87h0.5v1.1c0,0.4,0.2,0.6,0.5,0.6s0.5-0.2,0.5-0.6V87h0.5v1.1c0,0.6-0.3,0.9-0.9,0.9
			S11.9,88.8,11.9,88.2z"/>
		<path class="st2" d="M15.8,88.7v0.4h-1.6V87h1.5v0.4h-1.1v0.4h1v0.4h-1v0.5C14.6,88.7,15.8,88.7,15.8,88.7z"/>
		<path class="st2" d="M16.1,87h0.5v1.7h1v0.4h-1.5V87z"/>
		<path class="st2" d="M19.3,88.6h-1L18.1,89h-0.5l0.9-2.1H19l0.9,2.1h-0.5L19.3,88.6z M19.1,88.3l-0.3-0.8l-0.3,0.8H19.1z"/>
		<path class="st2" d="M21,87h0.9c0.7,0,1.1,0.4,1.1,1s-0.5,1-1.1,1H21V87z M21.9,88.7c0.4,0,0.7-0.2,0.7-0.6s-0.3-0.6-0.7-0.6h-0.4
			v1.3h0.4V88.7z"/>
		<path class="st2" d="M25,88.7v0.4h-1.6V87h1.5v0.4h-1.1v0.4h1v0.4h-1v0.5C23.8,88.7,25,88.7,25,88.7z"/>
		<path class="st2" d="M26.1,88c0-0.6,0.5-1.1,1.1-1.1c0.4,0,0.7,0.1,0.8,0.4l-0.3,0.3c-0.1-0.2-0.3-0.2-0.5-0.2
			c-0.4,0-0.7,0.3-0.7,0.7s0.3,0.7,0.7,0.7c0.2,0,0.4-0.1,0.5-0.2l0.3,0.3c-0.2,0.2-0.5,0.4-0.8,0.4C26.6,89.1,26.1,88.7,26.1,88z"
			/>
		<path class="st2" d="M28.2,88c0-0.6,0.5-1.1,1.1-1.1s1.1,0.4,1.1,1.1s-0.5,1.1-1.1,1.1S28.2,88.6,28.2,88z M30,88
			c0-0.4-0.3-0.7-0.6-0.7s-0.6,0.3-0.6,0.7s0.3,0.7,0.6,0.7S30,88.4,30,88z"/>
		<path class="st2" d="M32.7,87v2.1h-0.4l-1-1.2v1.2h-0.5V87h0.4l1,1.2V87H32.7z"/>
		<path class="st2" d="M33.2,87h0.9c0.7,0,1.1,0.4,1.1,1s-0.5,1-1.1,1h-0.9V87z M34.1,88.7c0.4,0,0.7-0.2,0.7-0.6s-0.3-0.6-0.7-0.6
			h-0.4v1.3h0.4V88.7z"/>
		<path class="st2" d="M35.6,88.2V87h0.5v1.1c0,0.4,0.2,0.6,0.5,0.6s0.5-0.2,0.5-0.6V87h0.5v1.1c0,0.6-0.3,0.9-0.9,0.9
			S35.6,88.8,35.6,88.2z"/>
		<path class="st2" d="M37.7,88c0-0.6,0.5-1.1,1.1-1.1c0.4,0,0.7,0.1,0.8,0.4l-0.3,0.3c-0.1-0.2-0.3-0.2-0.5-0.2
			c-0.4,0-0.7,0.3-0.7,0.7s0.3,0.7,0.7,0.7c0.2,0,0.4-0.1,0.5-0.2l0.3,0.3c-0.2,0.2-0.5,0.4-0.8,0.4C38.2,89.1,37.7,88.7,37.7,88z"
			/>
		<path class="st2" d="M39.9,88c0-0.6,0.5-1.1,1.1-1.1c0.4,0,0.7,0.1,0.8,0.4l-0.3,0.3c-0.1-0.2-0.3-0.2-0.5-0.2
			c-0.4,0-0.7,0.3-0.7,0.7s0.3,0.7,0.7,0.7c0.2,0,0.4-0.1,0.5-0.2l0.3,0.3c-0.2,0.2-0.5,0.4-0.8,0.4C40.3,89.1,39.9,88.7,39.9,88z"
			/>
		<path class="st2" d="M42.1,87h0.5v2.1h-0.5V87z"/>
		<path class="st2" d="M43,88c0-0.6,0.5-1.1,1.1-1.1s1.1,0.4,1.1,1.1s-0.5,1.1-1.1,1.1C43.4,89.1,43,88.6,43,88z M44.7,88
			c0-0.4-0.3-0.7-0.6-0.7s-0.6,0.3-0.6,0.7s0.3,0.7,0.6,0.7S44.7,88.4,44.7,88z M44.2,86.4h0.5l-0.5,0.4h-0.4L44.2,86.4z"/>
		<path class="st2" d="M47.4,87v2.1H47l-1-1.2v1.2h-0.5V87h0.4l1,1.2V87H47.4z"/>
		<path class="st2" d="M50.5,87.8c0,0.5-0.3,0.7-0.9,0.7h-0.4v0.6h-0.5V87h0.9C50.2,87,50.5,87.3,50.5,87.8z M50,87.8
			c0-0.2-0.1-0.4-0.4-0.4h-0.4v0.7h0.4C49.9,88.1,50,88,50,87.8z"/>
		<path class="st2" d="M52.1,88.6h-1L50.9,89h-0.5l0.9-2.1h0.5l0.9,2.1h-0.5L52.1,88.6z M52,88.3l-0.3-0.8l-0.3,0.8H52z"/>
		<path class="st2" d="M54.3,89.1l-0.4-0.6l0,0h-0.4v0.6H53V87h0.9c0.5,0,0.9,0.3,0.9,0.7c0,0.3-0.2,0.5-0.4,0.6l0.5,0.7h-0.6V89.1z
			 M53.9,87.4h-0.4v0.7h0.4c0.3,0,0.4-0.1,0.4-0.4C54.3,87.5,54.2,87.4,53.9,87.4z"/>
		<path class="st2" d="M56.5,88.6h-1L55.3,89h-0.5l0.9-2.1h0.5l0.9,2.1h-0.5L56.5,88.6z M56.4,88.3l-0.3-0.8l-0.3,0.8H56.4z"/>
		<path class="st2" d="M58.1,88c0-0.6,0.5-1.1,1.1-1.1c0.4,0,0.7,0.1,0.8,0.4l-0.3,0.3c-0.1-0.2-0.3-0.2-0.5-0.2
			c-0.4,0-0.7,0.3-0.7,0.7s0.3,0.7,0.7,0.7c0.2,0,0.4-0.1,0.5-0.2l0.3,0.3c-0.2,0.2-0.5,0.4-0.8,0.4C58.6,89.1,58.1,88.7,58.1,88z"
			/>
		<path class="st2" d="M60.2,88c0-0.6,0.5-1.1,1.1-1.1s1.1,0.4,1.1,1.1s-0.5,1.1-1.1,1.1S60.2,88.6,60.2,88z M62,88
			c0-0.4-0.3-0.7-0.6-0.7s-0.6,0.3-0.6,0.7s0.3,0.7,0.6,0.7S62,88.4,62,88z"/>
		<path class="st2" d="M64.7,87v2.1h-0.4l-1-1.2v1.2h-0.5V87h0.4l1,1.2V87H64.7z"/>
		<path class="st2" d="M65.2,87h0.9c0.7,0,1.1,0.4,1.1,1s-0.5,1-1.1,1h-0.9V87z M66.1,88.7c0.4,0,0.7-0.2,0.7-0.6s-0.3-0.6-0.7-0.6
			h-0.4v1.3h0.4V88.7z"/>
		<path class="st2" d="M67.6,88.2V87h0.5v1.1c0,0.4,0.2,0.6,0.5,0.6s0.5-0.2,0.5-0.6V87h0.5v1.1c0,0.6-0.3,0.9-0.9,0.9
			S67.6,88.8,67.6,88.2z"/>
		<path class="st2" d="M69.8,88c0-0.6,0.5-1.1,1.1-1.1c0.4,0,0.7,0.1,0.8,0.4l-0.3,0.3c-0.1-0.2-0.3-0.2-0.5-0.2
			c-0.4,0-0.7,0.3-0.7,0.7s0.3,0.7,0.7,0.7c0.2,0,0.4-0.1,0.5-0.2l0.3,0.3c-0.2,0.2-0.5,0.4-0.8,0.4C70.2,89.1,69.8,88.7,69.8,88z"
			/>
		<path class="st2" d="M72.4,87.4h-0.7V87h1.8v0.4h-0.7v1.7h-0.5L72.4,87.4L72.4,87.4z"/>
		<path class="st2" d="M73.7,88c0-0.6,0.5-1.1,1.1-1.1s1.1,0.4,1.1,1.1s-0.5,1.1-1.1,1.1C74.1,89.1,73.7,88.6,73.7,88z M75.4,88
			c0-0.4-0.3-0.7-0.6-0.7s-0.7,0.3-0.7,0.7s0.3,0.7,0.6,0.7S75.4,88.4,75.4,88z"/>
		<path class="st2" d="M77.6,89.1l-0.4-0.6l0,0h-0.4v0.6h-0.5V87h0.8c0.5,0,0.9,0.3,0.9,0.7c0,0.3-0.2,0.5-0.4,0.6l0.5,0.7h-0.5
			V89.1z M77.1,87.4h-0.4v0.7h0.4c0.3,0,0.4-0.1,0.4-0.4C77.6,87.5,77.4,87.4,77.1,87.4z"/>
		<path class="st2" d="M80,88.7v0.4h-1.6V87h1.5v0.4h-1.1v0.4h1v0.4h-1v0.5C78.8,88.7,80,88.7,80,88.7z"/>
		<path class="st2" d="M80.2,88.9l0.2-0.4c0.2,0.1,0.4,0.2,0.7,0.2c0.3,0,0.4-0.1,0.4-0.2c0-0.4-1.2-0.1-1.2-0.9
			c0-0.3,0.3-0.6,0.9-0.6c0.3,0,0.5,0.1,0.7,0.2l-0.1,0.4c-0.2-0.1-0.4-0.2-0.6-0.2c-0.3,0-0.4,0.1-0.4,0.2c0,0.4,1.2,0.1,1.2,0.9
			c0,0.3-0.3,0.6-0.9,0.6C80.7,89.1,80.4,89,80.2,88.9z"/>
		<path class="st2" d="M84.8,87.8c0,0.5-0.3,0.7-0.9,0.7h-0.4v0.6h-0.4V87H84C84.5,87,84.8,87.3,84.8,87.8z M84.4,87.8
			c0-0.2-0.1-0.4-0.4-0.4h-0.4v0.7H84C84.2,88.1,84.4,88,84.4,87.8z"/>
		<path class="st2" d="M86.5,89.1l-0.4-0.6l0,0h-0.4v0.6h-0.5V87h0.9c0.5,0,0.9,0.3,0.9,0.7c0,0.3-0.2,0.5-0.4,0.6l0.5,0.7h-0.6
			V89.1z M86,87.4h-0.4v0.7H86c0.3,0,0.4-0.1,0.4-0.4C86.5,87.5,86.3,87.4,86,87.4z"/>
		<path class="st2" d="M87.2,88c0-0.6,0.5-1.1,1.1-1.1s1.1,0.4,1.1,1.1s-0.5,1.1-1.1,1.1S87.2,88.6,87.2,88z M89,88
			c0-0.4-0.3-0.7-0.6-0.7s-0.6,0.3-0.6,0.7s0.3,0.7,0.6,0.7S89,88.4,89,88z"/>
		<path class="st2" d="M90.3,87.4v0.5h0.9v0.4h-0.9V89h-0.5v-2h1.5v0.4H90.3z"/>
		<path class="st2" d="M93.3,88.7v0.4h-1.6V87h1.5v0.4h-1.1v0.4h1v0.4h-1v0.5C92.1,88.7,93.3,88.7,93.3,88.7z"/>
		<path class="st2" d="M93.5,88.9l0.2-0.4c0.2,0.1,0.4,0.2,0.7,0.2c0.3,0,0.4-0.1,0.4-0.2c0-0.4-1.2-0.1-1.2-0.9
			c0-0.3,0.3-0.6,0.9-0.6c0.3,0,0.5,0.1,0.7,0.2l-0.1,0.4c-0.2-0.1-0.4-0.2-0.6-0.2c-0.3,0-0.4,0.1-0.4,0.2c0,0.4,1.2,0.1,1.2,0.9
			c0,0.3-0.3,0.6-0.9,0.6C94,89.1,93.7,89,93.5,88.9z"/>
		<path class="st2" d="M95.5,87H96v2.1h-0.5V87z"/>
		<path class="st2" d="M96.3,88c0-0.6,0.5-1.1,1.1-1.1s1.1,0.4,1.1,1.1s-0.5,1.1-1.1,1.1S96.3,88.6,96.3,88z M98.1,88
			c0-0.4-0.3-0.7-0.6-0.7s-0.6,0.3-0.6,0.7s0.3,0.7,0.6,0.7S98.1,88.4,98.1,88z"/>
		<path class="st2" d="M100.8,87v2.1h-0.4l-1-1.2v1.2h-0.5V87h0.4l1,1.2V87H100.8z"/>
		<path class="st2" d="M102.7,88.6h-1l-0.2,0.4H101l0.9-2.1h0.5l0.9,2.1h-0.5L102.7,88.6z M102.5,88.3l-0.3-0.8l-0.3,0.8H102.5z"/>
		<path class="st2" d="M103.5,87h0.5v1.7h1v0.4h-1.5V87z"/>
		<path class="st2" d="M106.9,88.7v0.4h-1.6V87h1.5v0.4h-1.1v0.4h1v0.4h-1v0.5C105.7,88.7,106.9,88.7,106.9,88.7z"/>
		<path class="st2" d="M107.1,88.9l0.2-0.4c0.2,0.1,0.4,0.2,0.7,0.2c0.3,0,0.4-0.1,0.4-0.2c0-0.4-1.2-0.1-1.2-0.9
			c0-0.3,0.3-0.6,0.9-0.6c0.3,0,0.5,0.1,0.7,0.2l-0.1,0.4c-0.2-0.1-0.4-0.2-0.6-0.2c-0.3,0-0.4,0.1-0.4,0.2c0,0.4,1.2,0.1,1.2,0.9
			c0,0.3-0.3,0.6-0.9,0.6C107.6,89.1,107.3,89,107.1,88.9z"/>
	</g>
	<g>
		<path class="st2" d="M74.6,33.2l-14.5-8.4c-1.7-1-3.7-1-5.3,0l-14.5,8.4c-1.7,1-2.7,2.7-2.7,4.6v16.7c0,1.9,1,3.7,2.7,4.6
			l14.5,8.4c0.8,0.5,1.8,0.7,2.7,0.7s1.8-0.2,2.7-0.7l14.5-8.3c1.7-1,2.7-2.7,2.7-4.6V37.8C77.2,35.9,76.2,34.1,74.6,33.2z
			 M75.5,54.7c0,1.1-0.6,2.2-1.6,2.8l-14.8,8.6c-1,0.6-2.2,0.6-3.2,0L41,57.5c-1-0.6-1.6-1.6-1.6-2.8V37.6c0-1.1,0.6-2.2,1.6-2.8
			l14.8-8.6c1-0.6,2.2-0.6,3.2,0l14.9,8.6c1,0.6,1.6,1.6,1.6,2.8V54.7z"/>
		<path class="st2" d="M56.8,59.3c-0.4,0-0.8-0.1-1.2-0.2c-1.5-0.2-3-0.7-4.4-1.5c-1.7-0.9-3-2.1-4.2-3.6c-1.3-1.7-2.1-3.6-2.5-5.6
			c-0.2-1.2-0.2-2.3-0.1-3.5c0.2-2.2,0.9-4.2,2.2-6.1c1.9-2.8,4.5-4.6,7.7-5.4c3.8-0.9,7.4-0.3,10.7,2c2.9,2,4.7,4.8,5.4,8.3
			c0.7,3.9-0.1,7.4-2.5,10.5c-2.1,2.7-4.8,4.3-8.1,4.9c-0.4,0.1-0.9,0.1-1.3,0.2c-0.1,0-0.2,0-0.2,0C57.7,59.3,57.3,59.3,56.8,59.3z
			 M69.5,46.2c0-6.6-5.3-12-12-12c-6.6,0-11.9,5.3-12,11.9c-0.1,6.7,5.3,12.1,12,12.1C64.1,58.2,69.4,52.9,69.5,46.2z"/>
		<path class="st2" d="M57.5,36.5c3.3,0.1,6,1.5,8,4.2c0.9,1.3,1.4,2.7,1.6,4.3c0.1,0.4,0.1,0.8,0.1,1.2c0,0.3-0.2,0.6-0.5,0.6
			s-0.5-0.2-0.6-0.6c0-0.5-0.1-1-0.2-1.6c-0.1-0.7-0.1-0.7-0.8-0.7c-1-0.1-2.1-0.3-3.2-0.3c-1.2-0.1-2.5-0.2-3.7-0.2
			c-1.5,0-2.9,0-4.4,0.1s-3.1,0.3-4.6,0.5c-0.1,0-0.3,0-0.4,0c-0.4,0-0.8-0.3-0.6-0.8c0.4-1.2,0.9-2.2,1.7-3.1
			c1.6-1.9,3.6-3.1,6-3.5c0.3,0,0.5-0.1,0.8-0.1C57,36.5,57.3,36.5,57.5,36.5z M65.4,42.8c-1.3-3-4.3-5.2-8-5.1
			c-3.5,0.1-6.5,2.2-7.7,5.1C54.9,42,60.1,42,65.4,42.8z"/>
		<path class="st2" d="M49.1,47.9c0.1,0,0.2,0,0.3,0c1,0,2.1,0,3.1,0c1.7,0.1,3.1,1.5,3.2,3.2c0,1.3,0,2.5,0,3.8
			c0,0.5-0.3,0.7-0.8,0.6c-3.6-1.1-5.9-3.4-6.9-7c-0.1-0.5-0.2-1-0.2-1.4s0.2-0.7,0.5-0.7s0.6,0.2,0.7,0.6
			C49,47.3,49.1,47.6,49.1,47.9z M54.6,54.3C54.6,54.2,54.6,54.2,54.6,54.3c0-1.1,0-2,0-2.9c0-1.2-1.1-2.2-2.2-2.2
			c-0.8,0-1.6,0-2.4,0c-0.2,0-0.3,0-0.6,0C50.4,51.6,52.1,53.3,54.6,54.3z"/>
		<path class="st2" d="M59.3,53c0-0.7-0.1-1.4,0-2.1c0.3-1.8,1.7-3,3.5-3c1.1,0,2.3,0,3.4,0c0.6,0,0.8,0.3,0.6,0.9
			c-0.7,2.5-2.2,4.4-4.4,5.8c-0.8,0.5-1.6,0.8-2.4,1c-0.5,0.1-0.8-0.1-0.8-0.6C59.2,54.3,59.2,53.7,59.3,53C59.2,53,59.2,53,59.3,53
			z M65.6,49.1c-1.1,0-2.1,0-3.1,0c-1.1,0-2.1,1.1-2.1,2.2c0,1,0,1.9,0,2.9v0.1C62.9,53.3,64.6,51.6,65.6,49.1z"/>
		<path class="st2" d="M55.2,46.2c0-1.2,1-2.3,2.2-2.3c1.3,0,2.3,1,2.3,2.3c0,1.2-0.9,2.3-2.3,2.3C56.3,48.5,55.2,47.5,55.2,46.2z
			 M57.5,45.1c-0.6,0-1.1,0.5-1.1,1.1s0.5,1.1,1.1,1.1c0.7,0,1.1-0.5,1.1-1.1C58.6,45.6,58.1,45.1,57.5,45.1z"/>
	</g>
</g>
</svg>
