<?xml version="1.0" encoding="utf-8"?>
<!-- Generator: Adobe Illustrator 26.0.0, SVG Export Plug-In . SVG Version: 6.00 Build 0)  -->
<svg version="1.1" id="Capa_1" xmlns="http://www.w3.org/2000/svg" xmlns:xlink="http://www.w3.org/1999/xlink" x="0px" y="0px"
	 viewBox="0 0 1080 1080" style="enable-background:new 0 0 1080 1080;" xml:space="preserve">
<style type="text/css">
	.st0{fill:#F3972F;}
	.st1{fill:#004C79;}
</style>
<path class="st0" d="M922.3,253.4L599.3,67.9c-36.7-21.2-82.4-21.2-119.3,0L157.4,253.4c-36.7,21.1-59.7,60.5-59.7,102.8V727
	c0,42.3,22.7,81.7,59.7,102.8l322.9,185.3c18.3,10.4,39.1,15.8,59.6,15.8s41.3-5.3,59.7-15.8l322.9-185.5
	c36.7-21.2,59.7-60.5,59.7-102.6V356C981.9,313.7,959.2,274.3,922.3,253.4z M942.3,731.6c0,25.3-13.7,48.6-35.7,61.3L575.1,983.2
	c-22,12.6-49.1,12.6-71.1,0L172.5,792.9c-22-12.6-35.7-36-35.7-61.3V351.1c0-25.3,13.7-48.6,35.7-61.3L504,99.5
	c22-12.6,49.1-12.6,71.1,0l331.5,190.4c22,12.6,35.7,36,35.7,61.3V731.6z"/>
<g>
	<path class="st1" d="M920.5,251.8L599.3,66.4c-36.6-21.1-82-21.1-118.6,0L159.5,251.8c-36.6,21.1-59.3,60.5-59.3,102.7v370.8
		c0,42.2,22.7,81.6,59.3,102.7l321.2,185.4c18.3,10.6,38.8,15.8,59.3,15.8c20.5,0,41-5.3,59.3-15.8l321.2-185.4
		c36.6-21.1,59.3-60.5,59.3-102.7V354.6C979.8,312.3,957.1,272.9,920.5,251.8z M940.5,730.3c0,25.3-13.5,48.7-35.4,61.3L575.4,982
		c-21.9,12.6-48.9,12.6-70.8,0L174.9,791.7c-21.9-12.6-35.4-36-35.4-61.3V349.7c0-25.3,13.5-48.7,35.4-61.3L504.6,98
		c21.9-12.6,48.9-12.6,70.8,0l329.7,190.3c21.9,12.6,35.4,36,35.4,61.3V730.3z"/>
	<path class="st1" d="M842.7,653.2c-6.9-4.2-13.5-8.2-18.3-13.4c-0.2-0.3-0.6-0.4-0.9-0.4h-563c-0.3,0-0.7,0.1-0.9,0.4
		c-4.8,5.2-11.4,9.1-18.3,13.4c-15,9.1-30.4,18.6-30.4,40.8c0,0.5,0.3,1,0.8,1.2l55.5,23.1c0.3,0.1,0.5,0.1,0.8,0l74.4-22.9
		l55.7,20.7l-73.5,23.5c-0.5,0.2-0.9,0.7-0.9,1.2c0,0.6,0.3,1.1,0.8,1.3l67.6,28.1c0.1,0.1,0.3,0.1,0.5,0.1c0.1,0,0.3,0,0.4-0.1
		l77.3-27.2l70.2,26.2l-70.5,30.9c-0.5,0.2-0.8,0.7-0.8,1.2c0,0.5,0.3,1,0.8,1.2l71.6,29.7c0.1,0.1,0.3,0.1,0.5,0.1
		c0.2,0,0.3,0,0.5-0.1l71.6-29.7c0.5-0.2,0.8-0.7,0.8-1.2c0-0.5-0.3-1-0.8-1.2l-70.5-30.9l70.2-26.2l77.3,27.2
		c0.1,0,0.3,0.1,0.4,0.1c0.2,0,0.3,0,0.5-0.1l67.6-28.1c0.5-0.2,0.8-0.7,0.8-1.3c0-0.6-0.4-1-0.9-1.2L686,716.2l55.7-20.7l74.4,22.9
		c0.1,0,0.2,0.1,0.4,0.1c0.2,0,0.3,0,0.5-0.1l55.5-23.1c0.5-0.2,0.8-0.7,0.8-1.2C873.1,671.8,857.6,662.4,842.7,653.2z M471.8,695.4
		h12.1l57.5,19.9l-71.2,25L406,716.4L471.8,695.4z M542.5,715.3l57.5-19.9h12.1l65.7,21l-64.2,23.9L542.5,715.3z"/>
	<path class="st1" d="M282,626h114h57.7h0.6h15.3c-1.8-0.1-3.3-1.5-3.3-3.3v-14.5c0-8.3,6.8-15.1,15.1-15.1h2v-5.8c-4-1.1-7-4.7-7-9
		c0-5.3,4.3-9.6,9.6-9.6h3.6c15.8-31.9,23.6-72.4,25.7-84.4h-5.6c-5.3,0-9.6-4.3-9.6-9.6s4.3-9.6,9.6-9.6h5.4
		c-4.5-5.9-7.3-13.1-7.3-21.1c0-19.2,15.6-34.8,34.8-34.8c19.2,0,34.8,15.6,34.8,34.8c0,8-2.8,15.2-7.3,21.1h7.3
		c5.3,0,9.6,4.3,9.6,9.6s-4.3,9.6-9.6,9.6H569c1.5,11.2,7.7,48.1,25.8,84.4h3.6c5.3,0,9.6,4.3,9.6,9.6c0,4.4-3,7.9-7,9v5.8h2
		c8.3,0,15.1,6.8,15.1,15.1v14.5c0,1.8-1.5,3.3-3.3,3.3h10.5h3.5c0.5,0.3,1.1,0.5,1.8,0.5h191.5c2.2,0,4-1.8,4-4v-17.2
		c0-9.9-8.1-18-18-18h-2.4v-6.8c4.8-1.3,8.4-5.7,8.4-10.9c0-6.3-5.1-11.4-11.4-11.4h-6.3l-13.3-13.3l18.9-18.9
		c1.6-1.6,1.6-4.1,0-5.7l-39.1-19.9c9.6-8.3,36.8-18.5,42.4-29.8c6.6-13.3,10-27.6,10-42.5c0-25.5-9.9-49.5-28-67.5
		c-18-18-42-28-67.5-28c-1.1,0-2.1,0.4-2.8,1.2l-70.8,70.8c-1.6,1.6-1.6,4.1,0,5.7l27.2,27.2c0.8,0.8,1.8,1.2,2.8,1.2c0,0,0,0,0,0
		c1.1,0,2.1-0.4,2.8-1.2c0.3-0.3,26.1-26.3,44-14.3c-16.6,26.6-63,97.1-63.5,97.9c-0.9,1.3-0.9,3-0.1,4.3l20.1,32.9h-10.4
		c-6.3,0-11.4,5.1-11.4,11.4c0,5.2,3.6,9.6,8.4,10.9v4.7l-32.9-1.5c-10.2-1.9-12.2-10.2-12.9-20.5l-0.7-9.6l-6-84.8
		c6.9-0.7,11.9-6.7,11.4-13.6c-0.5-6.9-6.4-12.1-13.3-11.9l-1.9-3.3l-7.6-97.2c7.4-1.1,13.1-6.2,13.1-12.3c0-3.7-2.2-7.1-5.5-9.4
		c3.4-3,5.5-6.9,5.5-11.1V271c0-2.4-2.5-4.4-5.7-4.4h-27c-3.1,0-5.7,2-5.7,4.4v14.3h-15.8V271c0-2.4-2.5-4.4-5.7-4.4h-27
		c-3.1,0-5.7,2-5.7,4.4v14.3h-15.8V271c0-2.4-2.5-4.4-5.7-4.4h-27c-3.1,0-5.7,2-5.7,4.4v38.9c0,4.3,2.1,8.2,5.5,11.1
		c-3.4,2.3-5.5,5.6-5.5,9.4c0,6.1,5.6,11.2,13.1,12.3l-7.6,97.2l-1.9,3.3c-6.9-0.3-12.8,5-13.3,11.9c-0.5,6.9,4.6,12.9,11.4,13.6
		l-6,84.8l-0.7,9.6c-1.7,6.1-3.9,16.1-13.1,19.6c-9.8,3.7-25.4,2.4-32.1,2.2V580c4.8-1.3,8.4-5.7,8.4-10.9c0-6.3-5.1-11.4-11.4-11.4
		h-10.4l20.1-32.9c0.8-1.3,0.8-3-0.1-4.3c-0.5-0.7-46.9-71.2-63.5-97.9c17.9-12,43.7,14.1,44,14.3c0.7,0.8,1.8,1.2,2.8,1.2
		c0,0,0,0,0,0c1.1,0,2.1-0.4,2.8-1.2l27.2-27.2c1.6-1.6,1.6-4.1,0-5.7l-70.8-70.8c-0.8-0.8-1.8-1.2-2.8-1.2
		c-25.5,0-49.5,9.9-67.5,28c-18,18-28,42-28,67.5c0,14.9,3.4,29.3,10,42.5c5.6,11.3,13.6,21.6,23.2,29.8l-19.9,19.9
		c-1.6,1.6-1.6,4.1,0,5.7l18.9,18.9l-13.3,13.3h-6.3c-6.3,0-11.4,5.1-11.4,11.4c0,5.2,3.6,9.6,8.4,10.9v6.8h-2.4
		c-9.9,0-18,8.1-18,18V622C258.7,624.2,279.7,626,282,626z"/>
</g>
</svg>
