<svg width="133" height="32" viewBox="0 0 133 32" fill="none" xmlns="http://www.w3.org/2000/svg">
<g clip-path="url(#clip0)">
<path d="M71.3067 10.4322V18.1883C71.33 19.1171 71.162 20.0407 70.8133 20.9001C70.4646 21.7595 69.9429 22.5359 69.2814 23.1799C68.6809 23.798 67.9631 24.2867 67.1711 24.6166C66.3792 24.9466 65.5296 25.1109 64.6733 25.0997C63.7614 25.1245 62.8541 24.9613 62.0066 24.62C61.159 24.2788 60.3888 23.7666 59.7428 23.1146C59.0987 22.4913 58.5892 21.7395 58.2465 20.9068C57.9038 20.0742 57.7353 19.1786 57.7516 18.2767V10.0022C57.7354 9.71508 57.776 9.42756 57.8711 9.15656C57.9662 8.88555 58.1138 8.63652 58.3053 8.42411C58.4847 8.23759 58.7003 8.09078 58.9386 7.99296C59.1769 7.89515 59.4326 7.84845 59.6897 7.85584C59.9354 7.84836 60.1801 7.89147 60.409 7.98255C60.6378 8.07363 60.846 8.21078 61.0209 8.38571C61.2188 8.60263 61.3721 8.8573 61.4717 9.13485C61.5713 9.41239 61.6153 9.70725 61.6012 10.0022V18.2843C61.589 18.6875 61.6576 19.0889 61.803 19.4644C61.9484 19.84 62.1674 20.1817 62.4469 20.4691C62.7284 20.7586 63.0663 20.9856 63.4391 21.1357C63.812 21.2858 64.2116 21.3556 64.6126 21.3407C65.3261 21.3506 66.0145 21.0746 66.5279 20.5728C66.8355 20.2635 67.0763 19.8928 67.2349 19.4843C67.3936 19.0759 67.4667 18.6385 67.4495 18.1999V10.0022C67.4323 9.71622 67.471 9.42962 67.5634 9.15881C67.6558 8.88801 67.8001 8.63833 67.9881 8.42411C68.165 8.23752 68.3786 8.09055 68.6151 7.99267C68.8515 7.89479 69.1057 7.84818 69.361 7.85584C69.7031 7.83548 70.0437 7.91516 70.3423 8.08535C70.6409 8.25555 70.8848 8.5091 71.045 8.81575C71.2533 9.3272 71.3428 9.88024 71.3067 10.4322Z" fill="#1F3664"/>
<path d="M81.9984 7.74447C83.3495 7.70486 84.6837 8.05652 85.8441 8.75814C86.8113 9.39552 87.293 10.0982 87.293 10.8584C87.3102 11.119 87.2761 11.3805 87.1928 11.6276C87.1094 11.8748 86.9785 12.1028 86.8075 12.2983C86.6512 12.4637 86.4625 12.5942 86.2535 12.6815C86.0445 12.7688 85.8198 12.8109 85.5938 12.8051C85.276 12.7904 84.9709 12.6749 84.7215 12.4749C84.4181 12.2561 84.1298 12.0295 83.8454 11.7915C83.3191 11.3167 82.6522 11.0318 81.949 10.9813C81.4523 10.9638 80.9657 11.1257 80.5761 11.4382C80.409 11.56 80.2724 11.7195 80.1769 11.9042C80.0814 12.0888 80.0298 12.2934 80.0262 12.5018C80.0262 13.2697 80.7012 13.8073 82.0552 14.1452C84.164 14.6674 85.6469 15.2971 86.5192 16.0189C87.5686 16.879 88.0945 18.0936 88.097 19.6628C88.1145 20.3973 87.9748 21.127 87.6874 21.8017C87.4 22.4765 86.9717 23.0802 86.432 23.5715C85.2701 24.6276 83.7483 25.1852 82.188 25.1266C80.558 25.1817 78.9522 24.7155 77.5988 23.7942C76.461 22.9879 75.8694 22.0664 75.8694 21.0373C75.863 20.5474 76.0469 20.0745 76.3814 19.7203C76.5405 19.5417 76.7355 19.3996 76.9533 19.3035C77.1712 19.2075 77.4068 19.1598 77.6443 19.1636C78.2436 19.1636 78.9098 19.4925 79.6431 20.1504C80.6102 21.0143 81.4674 21.4405 82.2183 21.4405C82.7547 21.4637 83.2788 21.2735 83.6785 20.9106C83.8639 20.737 84.0103 20.5252 84.1078 20.2893C84.2053 20.0535 84.2516 19.7992 84.2436 19.5437C84.2436 18.9371 83.8985 18.4725 83.2158 18.1538C82.3743 17.8177 81.5145 17.5305 80.6406 17.2937C79.1437 16.838 78.0691 16.3261 77.4168 15.7578C77.0198 15.3809 76.7092 14.9205 76.5068 14.4091C76.3043 13.8977 76.2149 13.3476 76.2448 12.7975C76.2233 12.1056 76.356 11.4177 76.633 10.7849C76.9101 10.152 77.3245 9.59054 77.8454 9.1421C78.9124 8.21035 80.2967 7.74447 81.9984 7.74447Z" fill="#1F3664"/>
<path d="M96.2817 9.99836V14.51H102.456V9.99836C102.44 9.71178 102.48 9.42476 102.575 9.15432C102.67 8.88389 102.818 8.63557 103.01 8.4241C103.189 8.2372 103.405 8.09014 103.643 7.9923C103.881 7.89445 104.137 7.84798 104.394 7.85583C104.649 7.84823 104.903 7.89489 105.138 7.99278C105.374 8.09067 105.587 8.23762 105.763 8.4241C106.142 8.8572 106.336 9.42473 106.302 10.0022V22.8612C106.318 23.1504 106.278 23.44 106.184 23.7134C106.09 23.9869 105.943 24.2388 105.752 24.4547C105.578 24.6402 105.367 24.7867 105.133 24.8846C104.899 24.9825 104.647 25.0296 104.394 25.0229C104.138 25.0277 103.884 24.9786 103.648 24.8788C103.411 24.779 103.198 24.6307 103.021 24.4431C102.827 24.2285 102.676 23.9766 102.579 23.7023C102.482 23.428 102.44 23.1368 102.456 22.8458V18.054H96.2817V22.8574C96.2983 23.1474 96.258 23.438 96.1629 23.7122C96.0679 23.9864 95.92 24.2387 95.7279 24.4547C95.5535 24.6402 95.3425 24.7867 95.1086 24.8846C94.8747 24.9825 94.6231 25.0296 94.3701 25.0229C94.1149 25.0294 93.8612 24.9822 93.6248 24.8844C93.3885 24.7866 93.1748 24.6403 92.9972 24.4547C92.8019 24.2412 92.6512 23.9901 92.5541 23.7163C92.457 23.4425 92.4155 23.1516 92.4321 22.8612V10.0022C92.4165 9.71419 92.4585 9.42596 92.5556 9.15479C92.6527 8.88362 92.8029 8.63509 92.9972 8.4241C93.1758 8.23769 93.3908 8.09091 93.6285 7.99308C93.8661 7.89525 94.1213 7.84852 94.3777 7.85583C94.6241 7.84828 94.8694 7.89134 95.0988 7.9824C95.3283 8.07347 95.5371 8.21067 95.7128 8.38571C95.9087 8.60273 96.06 8.85713 96.1576 9.13403C96.2553 9.41093 96.2975 9.70477 96.2817 9.99836Z" fill="#1F3664"/>
<path d="M123.475 11.4728L118.727 16.1917L124.2 21.3023C124.913 21.9781 125.273 22.5924 125.273 23.1492C125.279 23.4019 125.233 23.6531 125.136 23.8861C125.039 24.1192 124.895 24.3287 124.712 24.5007C124.529 24.6757 124.313 24.812 124.077 24.9016C123.841 24.9913 123.59 25.0325 123.339 25.0229C122.833 25.0229 122.251 24.7106 121.594 24.0861L115.253 18.0271V22.8574C115.269 23.1474 115.228 23.4377 115.133 23.7118C115.038 23.9858 114.89 24.2383 114.699 24.4547C114.524 24.6403 114.313 24.7867 114.08 24.8846C113.846 24.9825 113.594 25.0296 113.341 25.0229C113.085 25.03 112.83 24.9832 112.592 24.8854C112.354 24.7875 112.139 24.6409 111.961 24.4547C111.766 24.24 111.616 23.9881 111.519 23.7138C111.422 23.4395 111.38 23.1483 111.396 22.8574V9.97916C111.369 9.38986 111.572 8.81349 111.961 8.37419C112.136 8.18107 112.351 8.02809 112.589 7.92547C112.828 7.82284 113.086 7.77292 113.345 7.77904C113.593 7.77274 113.839 7.81902 114.069 7.9149C114.298 8.01078 114.505 8.15415 114.676 8.33579C115.073 8.7864 115.281 9.37584 115.256 9.97916V14.4332L120.813 8.76583C121.442 8.12845 122.045 7.77904 122.58 7.77904C122.83 7.77454 123.078 7.82158 123.31 7.91729C123.541 8.01301 123.751 8.15539 123.927 8.33579C124.102 8.50824 124.241 8.71484 124.336 8.94315C124.43 9.17146 124.478 9.41677 124.477 9.66431C124.477 10.2147 124.143 10.8175 123.475 11.4728Z" fill="#1F3664"/>
<path d="M128.762 22.8612V10.0022C128.745 9.71496 128.785 9.42721 128.881 9.15608C128.976 8.88495 129.124 8.636 129.316 8.42407C129.678 8.06666 130.161 7.86342 130.666 7.85627C131.172 7.84913 131.66 8.03863 132.032 8.38567C132.428 8.82583 132.635 9.40727 132.608 10.0022V22.8612C132.642 23.4446 132.445 24.0178 132.062 24.4546C131.887 24.6412 131.674 24.7882 131.439 24.8862C131.204 24.9841 130.951 25.0307 130.697 25.0229C130.441 25.0274 130.188 24.9781 129.952 24.8783C129.716 24.7785 129.504 24.6303 129.327 24.4431C129.134 24.231 128.984 23.9818 128.887 23.7101C128.79 23.4384 128.747 23.1497 128.762 22.8612Z" fill="#1F3664"/>
<path d="M39.1409 24.8809C38.8882 24.8814 38.6379 24.8314 38.4044 24.7337C38.1709 24.6361 37.9587 24.4927 37.7801 24.3118C37.6014 24.1309 37.4598 23.9161 37.3633 23.6797C37.2669 23.4433 37.2175 23.1899 37.218 22.9342V9.95229C37.218 9.43599 37.4206 8.94084 37.7812 8.57576C38.1418 8.21068 38.6309 8.00558 39.1409 8.00558C39.6508 8.00558 40.1399 8.21068 40.5006 8.57576C40.8612 8.94084 41.0638 9.43599 41.0638 9.95229V22.9342C41.0643 23.1899 41.0149 23.4433 40.9184 23.6797C40.8219 23.9161 40.6803 24.1309 40.5017 24.3118C40.323 24.4927 40.1108 24.6361 39.8773 24.7337C39.6438 24.8314 39.3935 24.8814 39.1409 24.8809Z" fill="#1F3664"/>
<path d="M56.8679 31.0857C56.3699 31.0858 55.8913 30.8904 55.5329 30.5405L42.2887 17.6085C41.9237 17.2509 41.7129 16.7618 41.7023 16.2477C41.6916 15.7336 41.8819 15.236 42.2319 14.8632L48.7363 7.95179C49.0941 7.60375 49.5708 7.40889 50.067 7.40778C50.5632 7.40668 51.0407 7.59942 51.4 7.94586C51.7593 8.2923 51.9727 8.76572 51.9958 9.26751C52.0189 9.76931 51.8499 10.2608 51.524 10.6395L46.3469 16.1494L58.2181 27.7375C58.4943 28.0071 58.6845 28.3542 58.7643 28.7341C58.8441 29.114 58.8099 29.5094 58.6659 29.8695C58.5219 30.2295 58.2749 30.5377 57.9565 30.7545C57.6381 30.9712 57.2629 31.0866 56.8793 31.0857H56.8679Z" fill="#00E6B2"/>
<path d="M28.2368 6.66169L16.1874 19.3325C15.8673 19.6664 15.4301 19.8589 14.9706 19.8682C14.5112 19.8776 14.0666 19.703 13.7336 19.3825L7.55146 13.4118C7.36528 13.2589 7.2123 13.0687 7.10212 12.8531C6.99194 12.6375 6.92693 12.4013 6.91116 12.1591C6.8954 11.9169 6.92921 11.674 7.0105 11.4457C7.09178 11.2173 7.21877 11.0084 7.38352 10.8321C7.54827 10.6558 7.74722 10.5158 7.9679 10.4209C8.18858 10.3261 8.42624 10.2784 8.66597 10.2809C8.90571 10.2833 9.14236 10.3359 9.36108 10.4353C9.57981 10.5347 9.7759 10.6787 9.93707 10.8584L14.8676 15.6081L25.8323 4.12752C22.7402 1.51725 18.7781 0.205053 14.76 0.460585C10.7419 0.716116 6.97315 2.51996 4.22808 5.50145C1.48301 8.48294 -0.0298234 12.4156 0.000445602 16.4913C0.0307146 20.567 1.60179 24.4762 4.39083 27.4156C7.17987 30.355 10.975 32.1012 14.9964 32.2956C19.0179 32.4899 22.9601 31.1175 26.013 28.4605C29.0659 25.8034 30.9976 22.0635 31.4112 18.0093C31.8248 13.955 30.6889 9.89433 28.2368 6.66169ZM20.9359 23.9593H9.34541C8.88371 23.9593 8.44092 23.7736 8.11444 23.4431C7.78797 23.1126 7.60456 22.6643 7.60456 22.1969C7.60456 21.7295 7.78797 21.2812 8.11444 20.9507C8.44092 20.6202 8.88371 20.4345 9.34541 20.4345H20.9359C21.3976 20.4345 21.8404 20.6202 22.1669 20.9507C22.4933 21.2812 22.6767 21.7295 22.6767 22.1969C22.6767 22.6643 22.4933 23.1126 22.1669 23.4431C21.8404 23.7736 21.3976 23.9593 20.9359 23.9593Z" fill="#00E6B2"/>
</g>
<defs>
<clipPath id="clip0">
<rect x="-1.79199" width="134.4" height="32.256" fill="white"/>
</clipPath>
</defs>
</svg>
